<svg width="47" height="50" viewBox="0 0 47 50" fill="none" xmlns="http://www.w3.org/2000/svg">
<path d="M46.1665 0H8.66663C8.20642 0 7.8333 0.373124 7.8333 0.833332V13.3333H9.49996V1.66666H45.3332V47.4999C45.3412 47.9381 45.0031 48.3052 44.5657 48.3332C44.494 48.3332 44.4224 48.3274 44.3507 48.3257C44.2032 48.3216 44.0557 48.3182 43.9107 48.3032C43.8982 48.3032 43.8866 48.3032 43.8741 48.2982C41.1524 48.0007 39.0025 45.8529 38.7024 43.1316C38.7024 43.1199 38.6982 43.1074 38.6966 43.0957C38.6764 42.8977 38.6664 42.6989 38.6666 42.4999V40.8333C38.6666 40.373 38.2934 39.9999 37.8332 39.9999H9.49996V24.9999H7.8333V39.9999H1.16664C0.706437 39.9999 0.333313 40.373 0.333313 40.8333V42.4999C0.337896 46.6401 3.6931 49.9953 7.8333 49.9999H44.5832C45.9355 49.9645 47.0103 48.8526 46.9999 47.4999V0.833332C46.9999 0.373124 46.6268 0 46.1665 0ZM7.8333 48.3332C4.6132 48.3296 2.00362 45.72 1.99998 42.4999V41.6666H36.9999V42.4999C37.001 42.7747 37.0169 43.0493 37.0474 43.3224C37.0549 43.3949 37.0691 43.4649 37.0791 43.5366C37.1066 43.7382 37.1399 43.9391 37.1841 44.1366C37.1991 44.2057 37.2182 44.2741 37.2357 44.3432C37.2866 44.5441 37.3441 44.7416 37.4107 44.9366C37.4299 44.9924 37.4499 45.0474 37.4707 45.1032C37.5466 45.3099 37.6324 45.5116 37.7266 45.7107C37.7466 45.7516 37.7649 45.7941 37.7849 45.8316C37.8894 46.0427 38.0041 46.2479 38.1291 46.4474C38.1457 46.4741 38.1607 46.5016 38.1774 46.5307C38.3132 46.7436 38.4599 46.9494 38.6166 47.1474L38.6432 47.1832C38.8251 47.4117 39.0199 47.6295 39.2266 47.8357C39.406 48.0135 39.5921 48.1802 39.7849 48.3357L7.8333 48.3332Z" fill="white"/>
</svg>
